<?xml version="1.0" encoding="UTF-8" standalone="no"?>
<svg
   viewBox="0 0 400 400"
   height="400"
   width="400"
   xml:space="preserve"
   id="svg2"
   version="1.1"
   sodipodi:docname="icon-privacy.svg"
   inkscape:version="1.4.2 (f4327f4, 2025-05-13)"
   xmlns:inkscape="http://www.inkscape.org/namespaces/inkscape"
   xmlns:sodipodi="http://sodipodi.sourceforge.net/DTD/sodipodi-0.dtd"
   xmlns="http://www.w3.org/2000/svg"
   xmlns:svg="http://www.w3.org/2000/svg"
   xmlns:rdf="http://www.w3.org/1999/02/22-rdf-syntax-ns#"
   xmlns:cc="http://creativecommons.org/ns#"
   xmlns:dc="http://purl.org/dc/elements/1.1/"><sodipodi:namedview
     id="namedview1"
     pagecolor="#ffffff"
     bordercolor="#000000"
     borderopacity="0.25"
     inkscape:showpageshadow="2"
     inkscape:pageopacity="0.0"
     inkscape:pagecheckerboard="0"
     inkscape:deskcolor="#d1d1d1"
     inkscape:zoom="1.5538672"
     inkscape:cx="159.28002"
     inkscape:cy="250.66492"
     inkscape:window-width="2048"
     inkscape:window-height="1081"
     inkscape:window-x="1912"
     inkscape:window-y="-8"
     inkscape:window-maximized="1"
     inkscape:current-layer="svg2" /><metadata
     id="metadata8"><rdf:RDF><cc:Work
         rdf:about=""><dc:format>image/svg+xml</dc:format><dc:type
           rdf:resource="http://purl.org/dc/dcmitype/StillImage" /></cc:Work></rdf:RDF></metadata><defs
     id="defs6"><clipPath
       id="clipPath18"
       clipPathUnits="userSpaceOnUse"><path
         id="path16"
         d="M 0,300 H 300 V 0 H 0 Z" /></clipPath></defs><g
     transform="matrix(1.3333333,0,0,-1.3333333,0,400)"
     id="g10"
     style="fill:#007bff;fill-opacity:1"><g
       id="g12"
       style="fill:#007bff;fill-opacity:1"><g
         clip-path="url(#clipPath18)"
         id="g14"
         style="fill:#007bff;fill-opacity:1"><g
           transform="translate(55.46,206.2402)"
           id="g20"
           style="fill:#007bff;fill-opacity:1"><path
             id="path22"
             style="fill:#007bff;fill-opacity:1;fill-rule:nonzero;stroke:none"
             d="m 0,0 c 0.076,-8.051 1.059,-38.444 11.039,-70.933 15.299,-49.802 43.391,-80.816 83.501,-92.192 40.109,11.376 68.202,42.39 83.501,92.192 9.98,32.489 10.964,62.882 11.04,70.933 C 137.025,18.423 102.779,43.532 94.54,49.929 86.301,43.532 52.055,18.423 0,0 m 94.54,-169.24 c -0.269,0 -0.537,0.036 -0.798,0.108 -42.084,11.616 -72.681,45.016 -88.485,96.587 -11.841,38.644 -11.285,73.278 -11.256,74.733 0.025,1.255 0.829,2.361 2.015,2.773 59.899,20.814 96.241,50.802 96.601,51.102 1.113,0.929 2.733,0.929 3.846,0 0.36,-0.3 36.703,-30.288 96.601,-51.102 1.186,-0.412 1.99,-1.518 2.015,-2.773 0.03,-1.455 0.585,-36.089 -11.257,-74.733 -15.802,-51.571 -46.4,-84.971 -88.484,-96.587 -0.261,-0.072 -0.529,-0.108 -0.798,-0.108" /></g><g
           transform="matrix(1.3057825,0,0,1.3057825,189.93095,113.80173)"
           id="g24"
           style="fill:#007bff;fill-opacity:1"><path
             id="path26"
             style="fill:#007bff;fill-opacity:1;fill-rule:nonzero;stroke:none"
             d="M 0,0 C 0,-4.218 -3.432,-7.649 -7.649,-7.649 H -53.51 c -4.219,0 -7.65,3.431 -7.65,7.649 v 40.265 c 0,4.217 3.431,7.649 7.65,7.649 H -7.649 C -3.432,47.914 0,44.482 0,40.265 Z m -42.916,66.458 c 0,4.217 3.432,7.649 7.649,7.649 h 9.373 c 4.218,0 7.65,-3.432 7.65,-7.649 V 53.914 H -42.916 Z M -7.649,53.914 h -4.595 v 12.544 c 0,7.526 -6.123,13.649 -13.65,13.649 h -9.373 c -7.526,0 -13.649,-6.123 -13.649,-13.649 V 53.914 h -4.594 c -7.527,0 -13.65,-6.123 -13.65,-13.649 V 0 c 0,-7.526 6.123,-13.649 13.65,-13.649 H -7.649 C -0.123,-13.649 6,-7.526 6,0 v 40.265 c 0,7.526 -6.123,13.649 -13.649,13.649" /></g><g
           transform="matrix(1.3057825,0,0,1.3057825,149.99999,157.68308)"
           id="g28"
           style="fill:#007bff;fill-opacity:1"><path
             id="path30"
             style="fill:#007bff;fill-opacity:1;fill-rule:nonzero;stroke:none"
             d="m 0,0 c -4.867,0 -8.813,-3.945 -8.813,-8.812 0,-3.237 1.751,-6.058 4.352,-7.59 v -10.545 h 8.923 v 10.545 c 2.6,1.532 4.351,4.353 4.351,7.59 C 8.813,-3.945 4.867,0 0,0" /></g></g></g></g></svg>
