<?xml version="1.0" encoding="UTF-8" standalone="no"?>
<svg
   version="1.0"
   width="300.000000pt"
   height="300.000000pt"
   viewBox="0 0 300.000000 300.000000"
   preserveAspectRatio="xMidYMid meet"
   id="svg13"
   sodipodi:docname="10349.svg"
   inkscape:version="1.4.2 (f4327f4, 2025-05-13)"
   xmlns:inkscape="http://www.inkscape.org/namespaces/inkscape"
   xmlns:sodipodi="http://sodipodi.sourceforge.net/DTD/sodipodi-0.dtd"
   xmlns="http://www.w3.org/2000/svg"
   xmlns:svg="http://www.w3.org/2000/svg">
  <defs
     id="defs13" />
  <sodipodi:namedview
     id="namedview13"
     pagecolor="#ffffff"
     bordercolor="#000000"
     borderopacity="0.25"
     inkscape:showpageshadow="2"
     inkscape:pageopacity="0.0"
     inkscape:pagecheckerboard="0"
     inkscape:deskcolor="#d1d1d1"
     inkscape:document-units="pt"
     inkscape:zoom="2.0175"
     inkscape:cx="199.75217"
     inkscape:cy="200"
     inkscape:window-width="1920"
     inkscape:window-height="1009"
     inkscape:window-x="-8"
     inkscape:window-y="165"
     inkscape:window-maximized="1"
     inkscape:current-layer="svg13" />
  <metadata
     id="metadata1">
Created by potrace 1.16, written by Peter Selinger 2001-2019
</metadata>
  <g
     transform="translate(0.000000,300.000000) scale(0.100000,-0.100000)"
     fill="#000000"
     stroke="none"
     id="g13">
    <path
       d="M1178 2533 l-3 -98 -87 -3 -88 -3 0 -139 0 -140 -110 0 -110 0 0 -860 0 -860 -80 0 -80 0 0 -30 0 -30 880 0 880 0 0 30 0 30 -65 0 -65 0 0 860 0 860 -125 0 -125 0 0 140 0 139 -82 3 -83 3 -3 98 -3 97 -324 0 -324 0 -3 -97z m592 -63 l0 -100 80 0 79 0 3 -142 3 -143 123 -3 122 -3 0 -824 0 -825 -665 0 -665 0 0 825 0 824 108 3 107 3 3 143 3 142 84 0 85 0 0 100 0 100 265 0 265 0 0 -100z"
       id="path1"
       style="fill:#007bff;fill-opacity:1" />
    <path
       d="M1022 1808 l3 -103 103 -3 102 -3 0 106 0 105 -105 0 -106 0 3 -102z"
       id="path2"
       style="fill:#007bff;fill-opacity:1" />
    <path
       d="M1412 1808 l3 -103 103 -3 102 -3 0 106 0 105 -105 0 -106 0 3 -102z"
       id="path3"
       style="fill:#007bff;fill-opacity:1" />
    <path
       d="M1800 1805 l0 -105 105 0 105 0 0 105 0 105 -105 0 -105 0 0 -105z"
       id="path4"
       style="fill:#007bff;fill-opacity:1" />
    <path
       d="M1022 1448 l3 -103 103 -3 102 -3 0 106 0 105 -105 0 -106 0 3 -102z"
       id="path5"
       style="fill:#007bff;fill-opacity:1" />
    <path
       d="M1412 1448 l3 -103 103 -3 102 -3 0 106 0 105 -105 0 -106 0 3 -102z"
       id="path6"
       style="fill:#007bff;fill-opacity:1" />
    <path
       d="M1800 1445 l0 -105 105 0 105 0 0 105 0 105 -105 0 -105 0 0 -105z"
       id="path7"
       style="fill:#007bff;fill-opacity:1" />
    <path
       d="M1020 1085 l0 -105 105 0 105 0 0 105 0 105 -105 0 -105 0 0 -105z"
       id="path8"
       style="fill:#007bff;fill-opacity:1" />
    <path
       d="M1410 1085 l0 -105 105 0 105 0 0 105 0 105 -105 0 -105 0 0 -105z"
       id="path9"
       style="fill:#007bff;fill-opacity:1" />
    <path
       d="M1800 1085 l0 -105 105 0 105 0 0 105 0 105 -105 0 -105 0 0 -105z"
       id="path10"
       style="fill:#007bff;fill-opacity:1" />
    <path
       d="M1020 725 l0 -105 105 0 105 0 0 105 0 105 -105 0 -105 0 0 -105z"
       id="path11"
       style="fill:#007bff;fill-opacity:1" />
    <path
       d="M1410 725 l0 -105 105 0 105 0 0 105 0 105 -105 0 -105 0 0 -105z"
       id="path12"
       style="fill:#007bff;fill-opacity:1" />
    <path
       d="M1800 725 l0 -105 105 0 105 0 0 105 0 105 -105 0 -105 0 0 -105z"
       id="path13"
       style="fill:#007bff;fill-opacity:1" />
  </g>
</svg>
