<?xml version="1.0" encoding="UTF-8" standalone="no"?>
<svg
   version="1.0"
   width="300.000000pt"
   height="300.000000pt"
   viewBox="0 0 300.000000 300.000000"
   preserveAspectRatio="xMidYMid meet"
   id="svg3"
   sodipodi:docname="9101.svg"
   inkscape:version="1.4.2 (f4327f4, 2025-05-13)"
   xmlns:inkscape="http://www.inkscape.org/namespaces/inkscape"
   xmlns:sodipodi="http://sodipodi.sourceforge.net/DTD/sodipodi-0.dtd"
   xmlns="http://www.w3.org/2000/svg"
   xmlns:svg="http://www.w3.org/2000/svg">
  <defs
     id="defs3" />
  <sodipodi:namedview
     id="namedview3"
     pagecolor="#ffffff"
     bordercolor="#000000"
     borderopacity="0.25"
     inkscape:showpageshadow="2"
     inkscape:pageopacity="0.0"
     inkscape:pagecheckerboard="0"
     inkscape:deskcolor="#d1d1d1"
     inkscape:document-units="pt"
     inkscape:zoom="2.0175"
     inkscape:cx="199.75217"
     inkscape:cy="200"
     inkscape:window-width="1920"
     inkscape:window-height="1009"
     inkscape:window-x="-8"
     inkscape:window-y="165"
     inkscape:window-maximized="1"
     inkscape:current-layer="g3" />
  <metadata
     id="metadata1">
Created by potrace 1.16, written by Peter Selinger 2001-2019
</metadata>
  <g
     transform="translate(0.000000,300.000000) scale(0.100000,-0.100000)"
     fill="#000000"
     stroke="none"
     id="g3">
    <path
       d="M2095 2603 c-153 -24 -294 -123 -360 -252 -53 -106 -65 -213 -39 -356 5 -28 -13 -48 -314 -348 l-318 -318 -85 12 c-65 10 -102 10 -153 1 -259 -43 -439 -289 -397 -543 14 -83 25 -109 49 -109 9 0 65 48 124 107 l108 108 53 -19 c115 -40 111 -37 142 -121 l28 -77 -107 -107 c-140 -141 -141 -157 -2 -180 262 -45 509 137 548 404 9 65 8 93 -4 152 l-14 72 321 321 321 321 86 -12 c238 -35 453 95 527 318 24 71 28 220 7 288 -20 70 -42 62 -166 -61 l-110 -107 -77 29 -78 29 -32 80 -32 80 111 111 c73 74 109 117 106 129 -1 10 -19 24 -40 31 -42 14 -158 24 -203 17z m139 -70 c4 -4 -37 -51 -90 -104 l-97 -98 42 -114 42 -114 116 -43 115 -43 97 97 c53 53 100 94 104 90 14 -15 6 -134 -13 -196 -39 -126 -149 -236 -273 -273 -65 -19 -169 -19 -235 0 -36 11 -57 13 -69 6 -26 -14 -693 -685 -693 -696 0 -6 7 -32 15 -59 63 -208 -62 -441 -273 -506 -64 -20 -186 -27 -196 -12 -3 5 33 46 80 93 47 46 89 91 94 100 11 19 -61 217 -84 235 -8 5 -60 27 -116 49 l-102 38 -96 -97 c-54 -53 -101 -96 -106 -96 -5 0 -7 42 -4 92 5 116 41 202 118 278 103 104 266 146 405 105 l58 -17 354 355 355 354 -17 51 c-12 37 -16 76 -13 139 4 111 41 197 118 274 48 48 143 101 200 112 41 7 156 8 164 0z"
       id="path1"
       style="fill:#007bff;fill-opacity:1" />
    <path
       d="M433 2529 l-71 -72 75 -156 c40 -85 78 -158 84 -161 5 -4 51 -17 102 -29 l92 -24 187 -186 188 -186 -50 -50 -50 -51 15 -79 c19 -96 34 -118 65 -90 16 14 19 26 14 45 -4 14 -10 41 -14 62 l-7 36 158 158 157 157 49 -8 c77 -12 85 -11 97 7 17 28 -10 46 -94 62 l-75 14 -53 -51 -53 -52 -183 185 -183 185 -27 105 -27 105 -153 73 c-83 39 -156 72 -161 72 -6 0 -42 -32 -82 -71z m226 -67 l114 -57 22 -82 23 -81 -47 -46 -46 -45 -82 22 -82 22 -56 118 c-30 65 -55 121 -55 124 0 12 73 83 85 82 5 0 61 -26 124 -57z m513 -664 l-32 -33 -175 175 -175 174 32 33 32 34 176 -176 175 -175 -33 -32z"
       id="path2"
       style="fill:#007bff;fill-opacity:1" />
    <path
       d="M1922 1488 l-22 -23 212 -212 213 -213 -198 -197 -197 -198 -208 208 c-114 114 -212 207 -218 207 -6 0 -19 -9 -29 -20 -19 -21 -16 -24 241 -281 l259 -259 109 -46 109 -46 184 184 184 184 -43 102 -43 102 -265 265 -265 265 -23 -22z m524 -614 l34 -78 -153 -154 -154 -154 -74 32 c-41 17 -84 41 -97 53 l-23 21 198 198 c228 228 208 222 269 82z"
       id="path3"
       style="fill:#007bff;fill-opacity:1" />
  </g>
</svg>
