<?xml version="1.0" encoding="UTF-8" standalone="no"?>
<svg
   version="1.0"
   width="300.000000pt"
   height="300.000000pt"
   viewBox="0 0 300.000000 300.000000"
   preserveAspectRatio="xMidYMid meet"
   id="svg3"
   sodipodi:docname="26536.svg"
   inkscape:version="1.4.2 (f4327f4, 2025-05-13)"
   xmlns:inkscape="http://www.inkscape.org/namespaces/inkscape"
   xmlns:sodipodi="http://sodipodi.sourceforge.net/DTD/sodipodi-0.dtd"
   xmlns="http://www.w3.org/2000/svg"
   xmlns:svg="http://www.w3.org/2000/svg">
  <defs
     id="defs3" />
  <sodipodi:namedview
     id="namedview3"
     pagecolor="#ffffff"
     bordercolor="#000000"
     borderopacity="0.25"
     inkscape:showpageshadow="2"
     inkscape:pageopacity="0.0"
     inkscape:pagecheckerboard="0"
     inkscape:deskcolor="#d1d1d1"
     inkscape:document-units="pt"
     inkscape:zoom="2.0175"
     inkscape:cx="199.75217"
     inkscape:cy="200"
     inkscape:window-width="1920"
     inkscape:window-height="1009"
     inkscape:window-x="-8"
     inkscape:window-y="165"
     inkscape:window-maximized="1"
     inkscape:current-layer="svg3" />
  <metadata
     id="metadata1">
Created by potrace 1.16, written by Peter Selinger 2001-2019
</metadata>
  <g
     transform="translate(0.000000,300.000000) scale(0.100000,-0.100000)"
     fill="#000000"
     stroke="none"
     id="g3">
    <path
       d="M1851 2619 c-84 -16 -180 -91 -211 -164 -10 -22 -23 -81 -30 -131 l-13 -91 -101 -6 c-310 -16 -538 -238 -554 -539 -9 -190 39 -321 167 -447 119 -119 244 -171 409 -171 269 0 496 176 562 435 27 104 25 221 -5 316 -4 12 45 57 174 163 179 145 181 146 231 146 l50 0 0 35 0 35 -47 -1 c-27 -1 -58 -4 -70 -7 -12 -4 -119 -86 -238 -182 -119 -96 -222 -176 -228 -178 -21 -5 -55 40 -68 90 -24 88 9 146 151 264 105 87 95 114 -41 114 -48 0 -94 -3 -103 -6 -9 -3 -25 -36 -36 -75 -12 -38 -23 -69 -26 -69 -3 0 -21 8 -42 19 -20 10 -56 25 -80 32 -40 12 -42 14 -37 43 3 17 10 62 15 100 13 84 29 115 77 155 62 51 108 61 283 61 86 0 232 3 323 7 l167 6 0 29 0 28 -317 -1 c-175 -1 -338 -5 -362 -10z m97 -416 c-30 -30 -40 -28 -31 5 4 16 13 22 31 22 l27 0 -27 -27z m-276 -63 c32 -10 77 -29 102 -44 l44 -26 -5 -82 c-5 -72 -2 -89 17 -131 39 -83 107 -119 156 -82 10 8 22 15 25 15 13 0 26 -137 19 -196 -15 -122 -55 -206 -141 -299 -75 -80 -181 -137 -289 -155 -282 -48 -550 151 -592 440 -23 153 26 301 138 420 139 147 333 199 526 140z"
       id="path1"
       style="fill:#007bff;fill-opacity:1" />
    <path
       d="M1306 1903 c26 -38 67 -95 91 -128 24 -32 43 -63 43 -67 0 -4 -34 -8 -75 -8 l-75 0 0 -30 0 -29 93 -3 c87 -3 92 -4 95 -25 3 -22 1 -23 -92 -23 l-96 0 0 -35 0 -35 95 0 95 0 0 -115 0 -115 40 0 40 0 0 115 0 115 90 0 90 0 0 35 0 35 -90 0 c-89 0 -90 0 -90 25 0 25 1 25 90 25 l90 0 0 30 0 29 -76 3 -76 3 96 133 95 132 -49 0 -48 0 -79 -110 c-43 -60 -81 -110 -85 -110 -3 0 -41 49 -85 110 l-78 109 -48 1 -49 0 48 -67z"
       id="path2"
       style="fill:#007bff;fill-opacity:1" />
    <path
       d="M470 1086 l0 -36 219 0 219 0 259 -102 c312 -123 350 -151 289 -213 -42 -41 -61 -40 -262 19 -103 30 -190 54 -191 52 -2 -1 -5 -16 -9 -32 l-6 -30 180 -52 c99 -29 199 -52 222 -52 52 0 108 30 136 73 20 30 36 37 298 116 183 55 285 81 301 77 56 -14 67 -82 21 -125 -28 -26 -655 -328 -711 -342 -53 -13 -58 -12 -426 116 l-273 95 -133 0 -133 0 0 -35 0 -35 132 0 131 0 306 -106 c392 -136 359 -135 631 -6 420 200 524 255 547 291 43 64 24 164 -37 196 -53 27 -114 17 -379 -64 l-255 -77 -45 46 c-42 43 -67 55 -306 151 l-260 104 -232 3 -233 3 0 -35z"
       id="path3"
       style="fill:#007bff;fill-opacity:1" />
  </g>
</svg>
