<?xml version="1.0" encoding="UTF-8" standalone="no"?>
<svg
   version="1.0"
   width="300.000000pt"
   height="300.000000pt"
   viewBox="0 0 300.000000 300.000000"
   preserveAspectRatio="xMidYMid meet"
   id="svg3"
   sodipodi:docname="24.svg"
   inkscape:version="1.4.2 (f4327f4, 2025-05-13)"
   xmlns:inkscape="http://www.inkscape.org/namespaces/inkscape"
   xmlns:sodipodi="http://sodipodi.sourceforge.net/DTD/sodipodi-0.dtd"
   xmlns="http://www.w3.org/2000/svg"
   xmlns:svg="http://www.w3.org/2000/svg">
  <defs
     id="defs3" />
  <sodipodi:namedview
     id="namedview3"
     pagecolor="#ffffff"
     bordercolor="#000000"
     borderopacity="0.25"
     inkscape:showpageshadow="2"
     inkscape:pageopacity="0.0"
     inkscape:pagecheckerboard="0"
     inkscape:deskcolor="#d1d1d1"
     inkscape:document-units="pt"
     inkscape:zoom="2.0175"
     inkscape:cx="199.75217"
     inkscape:cy="200"
     inkscape:window-width="1920"
     inkscape:window-height="1009"
     inkscape:window-x="-8"
     inkscape:window-y="165"
     inkscape:window-maximized="1"
     inkscape:current-layer="g3" />
  <metadata
     id="metadata1">
Created by potrace 1.16, written by Peter Selinger 2001-2019
</metadata>
  <g
     transform="translate(0.000000,300.000000) scale(0.100000,-0.100000)"
     fill="#000000"
     stroke="none"
     id="g3">
    <path
       d="M982 2428 c-8 -8 -12 -53 -12 -135 l0 -123 40 0 40 0 0 95 0 95 450 0 450 0 0 -95 0 -95 40 0 40 0 0 123 c0 82 -4 127 -12 135 -17 17 -1019 17 -1036 0z"
       id="path1"
       style="fill:#007bff;fill-opacity:1" />
    <path
       d="M549 2066 c-69 -25 -130 -89 -149 -156 -6 -21 -10 -257 -10 -591 0 -624 -1 -616 71 -688 75 -74 25 -71 1039 -71 1014 0 964 -3 1039 71 73 73 72 63 69 710 -3 635 0 599 -69 668 -70 71 7 66 -1024 68 -747 2 -937 0 -966 -11z m1901 -88 c71 -49 75 -61 75 -245 l0 -166 -189 -128 -189 -129 -648 0 -648 0 -190 128 -191 127 2 167 c3 185 7 197 78 246 l33 22 917 0 917 0 33 -22z m-1772 -645 l152 -103 668 0 669 0 179 120 179 120 3 -342 c2 -221 -1 -356 -8 -380 -13 -44 -68 -95 -112 -103 -18 -3 -439 -4 -935 -3 -893 3 -902 3 -929 24 -15 11 -37 33 -48 48 -20 26 -21 42 -24 393 l-3 365 28 -18 c16 -11 97 -65 181 -121z"
       id="path2"
       style="fill:#007bff;fill-opacity:1" />
    <path
       d="M1360 1485 l0 -35 115 0 115 0 0 35 0 35 -115 0 -115 0 0 -35z"
       id="path3"
       style="fill:#007bff;fill-opacity:1" />
  </g>
</svg>
