<?xml version="1.0" encoding="UTF-8" standalone="no"?>
<svg
   version="1.0"
   width="300.000000pt"
   height="300.000000pt"
   viewBox="0 0 300.000000 300.000000"
   preserveAspectRatio="xMidYMid meet"
   id="svg1"
   sodipodi:docname="314.svg"
   inkscape:version="1.4.2 (f4327f4, 2025-05-13)"
   xmlns:inkscape="http://www.inkscape.org/namespaces/inkscape"
   xmlns:sodipodi="http://sodipodi.sourceforge.net/DTD/sodipodi-0.dtd"
   xmlns="http://www.w3.org/2000/svg"
   xmlns:svg="http://www.w3.org/2000/svg">
  <defs
     id="defs1" />
  <sodipodi:namedview
     id="namedview1"
     pagecolor="#ffffff"
     bordercolor="#000000"
     borderopacity="0.25"
     inkscape:showpageshadow="2"
     inkscape:pageopacity="0.0"
     inkscape:pagecheckerboard="0"
     inkscape:deskcolor="#d1d1d1"
     inkscape:document-units="pt"
     inkscape:zoom="2.0175"
     inkscape:cx="199.75217"
     inkscape:cy="200"
     inkscape:window-width="1920"
     inkscape:window-height="1009"
     inkscape:window-x="-8"
     inkscape:window-y="165"
     inkscape:window-maximized="1"
     inkscape:current-layer="svg1" />
  <metadata
     id="metadata1">
Created by potrace 1.16, written by Peter Selinger 2001-2019
</metadata>
  <g
     transform="translate(0.000000,300.000000) scale(0.100000,-0.100000)"
     fill="#000000"
     stroke="none"
     id="g1">
    <path
       d="M981 2284 c-144 -39 -290 -160 -354 -294 -42 -89 -57 -156 -57 -252 l0 -70 -55 -60 c-60 -65 -103 -141 -129 -227 -21 -71 -21 -220 0 -292 53 -179 194 -320 373 -373 48 -14 142 -16 741 -16 599 0 693 2 741 16 179 53 320 194 373 373 20 68 21 217 1 290 -44 167 -195 326 -353 372 -39 11 -46 19 -79 81 -96 183 -313 277 -513 223 -53 -14 -56 -13 -73 8 -95 116 -204 191 -323 222 -73 19 -221 19 -293 -1z m351 -97 c88 -40 175 -116 216 -187 14 -25 26 -46 27 -48 2 -1 38 9 81 24 65 22 92 25 150 22 143 -9 272 -100 329 -230 l28 -64 62 -18 c275 -79 416 -397 290 -652 -47 -96 -125 -174 -224 -222 l-76 -37 -715 0 -715 0 -76 37 c-300 147 -364 529 -126 761 l62 61 -3 86 c-5 149 38 260 143 366 105 107 207 146 365 141 96 -3 112 -7 182 -40z"
       id="path1"
       style="fill:#007bff;fill-opacity:1" />
  </g>
</svg>
