<?xml version="1.0" encoding="UTF-8" standalone="no"?>
<svg
   version="1.0"
   width="300.000000pt"
   height="300.000000pt"
   viewBox="0 0 300.000000 300.000000"
   preserveAspectRatio="xMidYMid meet"
   id="svg5"
   sodipodi:docname="1616.svg"
   inkscape:version="1.4.2 (f4327f4, 2025-05-13)"
   xmlns:inkscape="http://www.inkscape.org/namespaces/inkscape"
   xmlns:sodipodi="http://sodipodi.sourceforge.net/DTD/sodipodi-0.dtd"
   xmlns="http://www.w3.org/2000/svg"
   xmlns:svg="http://www.w3.org/2000/svg">
  <defs
     id="defs5" />
  <sodipodi:namedview
     id="namedview5"
     pagecolor="#ffffff"
     bordercolor="#000000"
     borderopacity="0.25"
     inkscape:showpageshadow="2"
     inkscape:pageopacity="0.0"
     inkscape:pagecheckerboard="0"
     inkscape:deskcolor="#d1d1d1"
     inkscape:document-units="pt"
     inkscape:zoom="2.0175"
     inkscape:cx="199.75217"
     inkscape:cy="200"
     inkscape:window-width="1920"
     inkscape:window-height="1009"
     inkscape:window-x="-8"
     inkscape:window-y="165"
     inkscape:window-maximized="1"
     inkscape:current-layer="g5" />
  <metadata
     id="metadata1">
Created by potrace 1.16, written by Peter Selinger 2001-2019
</metadata>
  <g
     transform="translate(0.000000,300.000000) scale(0.100000,-0.100000)"
     fill="#000000"
     stroke="none"
     id="g5">
    <path
       d="M1265 2610 c-441 -93 -785 -439 -875 -880 -27 -134 -27 -326 0 -460 60 -293 237 -554 484 -715 205 -133 381 -185 626 -185 302 0 563 102 778 304 232 219 352 501 352 826 0 268 -77 494 -241 706 -115 149 -307 288 -495 359 -175 66 -439 85 -629 45z m451 -70 c339 -67 641 -320 772 -647 98 -245 98 -541 0 -786 -106 -264 -331 -489 -595 -595 -245 -98 -541 -98 -786 0 -264 106 -489 331 -595 595 -50 126 -72 245 -72 393 0 286 101 536 300 740 257 264 612 373 976 300z"
       id="path1"
       style="fill:#007bff;fill-opacity:1" />
    <path
       d="M730 1500 l0 -270 25 0 24 0 3 138 3 137 68 3 c64 3 67 4 67 27 0 24 -2 25 -70 25 l-71 0 3 78 3 77 88 3 c85 3 87 3 87 27 l0 25 -115 0 -115 0 0 -270z"
       id="path2"
       style="fill:#007bff;fill-opacity:1" />
    <path
       d="M1130 1500 l0 -270 25 0 25 0 0 119 c0 67 4 122 10 126 9 6 55 -53 140 -178 40 -60 48 -67 78 -67 24 0 31 3 26 13 -5 6 -39 56 -76 110 -81 115 -87 127 -62 127 58 0 114 72 114 146 0 99 -61 143 -197 144 l-83 0 0 -270z m197 187 c25 -24 32 -64 19 -105 -10 -31 -56 -52 -116 -52 l-50 0 0 88 c0 49 3 92 8 96 4 5 31 6 61 3 39 -4 61 -13 78 -30z"
       id="path3"
       style="fill:#007bff;fill-opacity:1" />
    <path
       d="M1580 1500 l0 -270 135 0 135 0 0 25 0 25 -105 0 -105 0 0 110 0 110 80 0 c79 0 80 0 80 25 0 25 -1 25 -80 25 l-80 0 0 85 0 85 105 0 105 0 0 25 0 25 -135 0 -135 0 0 -270z"
       id="path4"
       style="fill:#007bff;fill-opacity:1" />
    <path
       d="M2000 1500 l0 -270 135 0 135 0 0 25 0 25 -105 0 -105 0 0 110 0 110 85 0 c84 0 85 0 85 25 0 25 -1 25 -85 25 l-85 0 0 85 0 85 105 0 105 0 0 25 0 25 -135 0 -135 0 0 -270z"
       id="path5"
       style="fill:#007bff;fill-opacity:1" />
  </g>
</svg>
